<svg id="eEt9HhDzdOR1" xmlns="http://www.w3.org/2000/svg" xmlns:xlink="http://www.w3.org/1999/xlink" viewBox="0 0 600 300" shape-rendering="geometricPrecision" text-rendering="geometricPrecision"><rect width="65.184763" height="182.257793" rx="0" ry="0" transform="translate(6.663416 117.742208)" stroke-width="0"/><rect width="59.454235" height="158.619363" rx="0" ry="0" transform="translate(94.053978 141.380639)" stroke-width="0"/><rect width="90.972142" height="226.669392" rx="0" ry="0" transform="translate(174.997694 73.33061)" stroke-width="0"/><rect width="74.133564" height="150" rx="0" ry="0" transform="translate(300 150)" stroke-width="0"/><rect width="79.511085" height="129.966719" rx="0" ry="0" transform="translate(409.233052 170.033281)" stroke-width="0"/><rect width="86.674246" height="200.882011" rx="0" ry="0" transform="translate(498.772562 99.117989)" stroke-width="0"/><rect width="6.446845" height="7.879478" rx="0" ry="0" transform="translate(13.110261 133.501161)" fill="#f8f8f8" stroke-width="0"/><rect width="35.815804" height="8.237636" rx="0" ry="0" transform="translate(28.869214 129.203264)" fill="#f8f8f8" stroke-width="0"/><rect width="19.698692" height="12.87012" rx="0" ry="0" transform="translate(19.557106 150)" fill="#f8f8f8" stroke-width="0"/><rect width="17.907902" height="6.43506" rx="0" ry="0" transform="translate(46.777116 156.43506)" fill="#f8f8f8" stroke-width="0"/><rect width="26.145537" height="12.177373" rx="0" ry="0" transform="translate(13.110261 170.03328)" fill="#f8f8f8" stroke-width="0"/><rect width="17.907902" height="12.177372" rx="0" ry="0" transform="translate(46.777116 170.033281)" fill="#f8f8f8" stroke-width="0"/><rect width="26.145537" height="5.887283" rx="0" ry="0" transform="translate(13.110261 193.671711)" fill="#f8f8f8" stroke-width="0"/><rect width="8.953951" height="9.950047" rx="0" ry="0" transform="translate(55.731067 186.665306)" fill="#f8f8f8" stroke-width="0"/><rect width="20.594087" height="11.819216" rx="0" ry="0" transform="translate(26.18303 208.871105)" fill="#f8f8f8" stroke-width="0"/><rect width="8.953951" height="11.819215" rx="0" ry="0" transform="translate(55.731067 208.871105)" fill="#f8f8f8" stroke-width="0"/><rect width="20.14639" height="14.326322" rx="0" ry="0" transform="translate(16.333683 229.487515)" fill="#f8f8f8" stroke-width="0"/><rect width="25.42922" height="7.163161" rx="0" ry="0" transform="translate(39.255798 236.650676)" fill="#f8f8f8" stroke-width="0"/><rect width="19.698692" height="7.879477" rx="0" ry="0" transform="translate(19.557106 254.558578)" fill="#f8f8f8" stroke-width="0"/><rect width="12.71461" height="7.879477" rx="0" ry="0" transform="translate(51.970408 254.558578)" fill="#f8f8f8" stroke-width="0"/><rect width="22.563958" height="10.38069" rx="0" ry="0" transform="translate(101.217138 159.65259)" fill="#f8f8f8" stroke-width="0"/><rect width="10.028425" height="13.598221" rx="0" ry="0" transform="translate(132.018731 156.435061)" fill="#f8f8f8" stroke-width="0"/><rect width="18.266061" height="6.088686" rx="0" ry="0" transform="translate(105.515035 176.121967)" fill="#f8f8f8" stroke-width="0"/><rect width="15.758952" height="10.543339" rx="0" ry="0" transform="translate(132.018731 176.121968)" fill="#f8f8f8" stroke-width="0"/><rect width="13.430927" height="5.887283" rx="0" ry="0" transform="translate(101.217138 193.671711)" fill="#f8f8f8" stroke-width="0"/><rect width="18.26606" height="12.059808" rx="0" ry="0" transform="translate(123.781096 191.640329)" fill="#f8f8f8" stroke-width="0"/><rect width="15.848495" height="10.219287" rx="0" ry="0" transform="translate(107.932602 214.780713)" fill="#f8f8f8" stroke-width="0"/><rect width="14.863557" height="14.706802" rx="0" ry="0" transform="translate(132.914127 214.780713)" fill="#f8f8f8" stroke-width="0"/><rect width="14.639712" height="10.744742" rx="0" ry="0" transform="translate(101.217138 229.487515)" fill="#f8f8f8" stroke-width="0"/><rect width="23.996587" height="5.37237" rx="0" ry="0" transform="translate(123.781095 234.859886)" fill="#f8f8f8" stroke-width="0"/><rect width="22.563957" height="7.879477" rx="0" ry="0" transform="translate(101.217139 254.558578)" fill="#f8f8f8" stroke-width="0"/><rect width="10.028425" height="10.744741" rx="0" ry="0" transform="translate(132.018732 243.813837)" fill="#f8f8f8" stroke-width="0"/><rect width="26.503696" height="5.730529" rx="0" ry="0" transform="translate(105.515035 270.317533)" fill="#f8f8f8" stroke-width="0"/><rect width="10.744741" height="5.730529" rx="0" ry="0" transform="translate(137.032944 270.317534)" fill="#f8f8f8" stroke-width="0"/><rect width="32.234224" height="21.489482" rx="0" ry="0" transform="translate(182.877171 90.522196)" fill="#f8f8f8" stroke-width="0"/><rect width="30.085275" height="10.744741" rx="0" ry="0" transform="translate(225.13982 101.266937)" fill="#f8f8f8" stroke-width="0"/><rect width="21.489482" height="20.796736" rx="0" ry="0" transform="translate(198.994283 129.203264)" fill="#f8f8f8" stroke-width="0"/><rect width="30.085275" height="12.356452" rx="0" ry="0" transform="translate(225.13982 133.322082)" fill="#f8f8f8" stroke-width="0"/><rect width="35.099488" height="16.29619" rx="0" ry="0" transform="translate(190.040332 162.87012)" fill="#f8f8f8" stroke-width="0"/><rect width="20.773167" height="8.148095" rx="0" ry="0" transform="translate(240.182458 162.87012)" fill="#f8f8f8" stroke-width="0"/><rect width="37.606594" height="10.028426" rx="0" ry="0" transform="translate(182.877171 193.671711)" fill="#f8f8f8" stroke-width="0"/><rect width="30.085275" height="17.230775" rx="0" ry="0" transform="translate(225.13982 191.640329)" fill="#f8f8f8" stroke-width="0"/><rect width="25.071063" height="15.126284" rx="0" ry="0" transform="translate(190.040333 219.890357)" fill="#f8f8f8" stroke-width="0"/><rect width="30.801592" height="7.353401" rx="0" ry="0" transform="translate(230.154033 222.134115)" fill="#f8f8f8" stroke-width="0"/><rect width="32.234224" height="13.251847" rx="0" ry="0" transform="translate(182.877171 249.186207)" fill="#f8f8f8" stroke-width="0"/><rect width="25.071062" height="7.879476" rx="0" ry="0" transform="translate(230.154033 254.558578)" fill="#f8f8f8" stroke-width="0"/><rect width="28.834297" height="8.148095" rx="0" ry="0" transform="translate(308.232486 162.87012)" fill="#f8f8f8" stroke-width="0"/><rect width="16.475269" height="21.822372" rx="0" ry="0" transform="translate(348.346186 164.842935)" fill="#f8f8f8" stroke-width="0"/><rect width="23.820084" height="11.461058" rx="0" ry="0" transform="translate(313.246698 182.210653)" fill="#f8f8f8" stroke-width="0"/><rect width="16.475269" height="5.014213" rx="0" ry="0" transform="translate(348.346186 193.67171)" fill="#f8f8f8" stroke-width="0"/><rect width="16.924254" height="11.019252" rx="0" ry="0" transform="translate(308.232486 208.871104)" fill="#f8f8f8" stroke-width="0"/><rect width="27.754673" height="13.263011" rx="0" ry="0" transform="translate(337.066782 208.871104)" fill="#f8f8f8" stroke-width="0"/><rect width="19.340534" height="14.169566" rx="0" ry="0" transform="translate(313.246698 235.016641)" fill="#f8f8f8" stroke-width="0"/><rect width="27.220011" height="6.267766" rx="0" ry="0" transform="translate(341.899342 237.546071)" fill="#f8f8f8" stroke-width="0"/><rect width="14.684479" height="11.819218" rx="0" ry="0" transform="translate(308.232486 258.498316)" fill="#f8f8f8" stroke-width="0"/><rect width="32.234223" height="13.251847" rx="0" ry="0" transform="translate(332.587232 249.186208)" fill="#f8f8f8" stroke-width="0"/><rect width="34.025014" height="14.505401" rx="0" ry="0" transform="translate(414.963581 179.166311)" fill="#f8f8f8" stroke-width="0"/><rect width="21.489483" height="9.429676" rx="0" ry="0" transform="translate(462.956757 182.210653)" fill="#f8f8f8" stroke-width="0"/><rect width="25.42922" height="10.680593" rx="0" ry="0" transform="translate(423.559374 203.700138)" fill="#f8f8f8" stroke-width="0"/><rect width="27.936326" height="18.433978" rx="0" ry="0" transform="translate(456.509914 203.700137)" fill="#f8f8f8" stroke-width="0"/><rect width="21.310403" height="10.839861" rx="0" ry="0" transform="translate(414.96358 225.810816)" fill="#f8f8f8" stroke-width="0"/><rect width="35.457645" height="12.58309" rx="0" ry="0" transform="translate(448.988595 231.230747)" fill="#f8f8f8" stroke-width="0"/><rect width="12.71461" height="14.684479" rx="0" ry="0" transform="translate(423.559374 243.813837)" fill="#f8f8f8" stroke-width="0"/><rect width="24.712904" height="7.879476" rx="0" ry="0" transform="translate(448.988594 254.558578)" fill="#f8f8f8" stroke-width="0"/><rect width="26.503695" height="5.730529" rx="0" ry="0" transform="translate(414.963581 270.317534)" fill="#f8f8f8" stroke-width="0"/><rect width="35.457645" height="12.177372" rx="0" ry="0" transform="translate(448.988595 270.317533)" fill="#f8f8f8" stroke-width="0"/><rect width="30.801592" height="12.89369" rx="0" ry="0" transform="translate(506.652039 112.011678)" fill="#f8f8f8" stroke-width="0"/><rect width="22.922115" height="17.191586" rx="0" ry="0" transform="translate(551.779952 112.011678)" fill="#f8f8f8" stroke-width="0"/><rect width="20.773166" height="16.677918" rx="0" ry="0" transform="translate(511.666252 133.322082)" fill="#f8f8f8" stroke-width="0"/><rect width="22.922115" height="6.178226" rx="0" ry="0" transform="translate(551.779952 139.500308)" fill="#f8f8f8" stroke-width="0"/><rect width="35.457646" height="6.17528" rx="0" ry="0" transform="translate(506.652039 164.842935)" fill="#f8f8f8" stroke-width="0"/><rect width="22.922115" height="19.51372" rx="0" ry="0" transform="translate(551.779952 159.65259)" fill="#f8f8f8" stroke-width="0"/><rect width="30.801592" height="13.139983" rx="0" ry="0" transform="translate(506.652039 186.419012)" fill="#f8f8f8" stroke-width="0"/><rect width="32.592382" height="21.945613" rx="0" ry="0" transform="translate(542.109685 186.925492)" fill="#f8f8f8" stroke-width="0"/><rect width="25.787379" height="22.190313" rx="0" ry="0" transform="translate(511.666252 209.040435)" fill="#f8f8f8" stroke-width="0"/><rect width="27.936327" height="7.3534" rx="0" ry="0" transform="translate(546.76574 222.134115)" fill="#f8f8f8" stroke-width="0"/><rect width="25.429221" height="13.710707" rx="0" ry="0" transform="translate(516.680464 242.101424)" fill="#f8f8f8" stroke-width="0"/><rect width="22.922115" height="22.205799" rx="0" ry="0" transform="translate(551.779952 240.232256)" fill="#f8f8f8" stroke-width="0"/></svg>
